<svg height="512" viewBox="0 0 510 510" width="512" xmlns="http://www.w3.org/2000/svg" xmlns:xlink="http://www.w3.org/1999/xlink"><linearGradient id="a"><stop offset="0" stop-color="#7faef4"/><stop offset="1" stop-color="#4c8df1"/></linearGradient><linearGradient id="d" gradientUnits="userSpaceOnUse" x1="163.361" x2="411.374" xlink:href="#a" y1="146.695" y2="394.708"/><linearGradient id="e" gradientUnits="userSpaceOnUse" x1="361.508" x2="130.909" xlink:href="#a" y1="344.842" y2="114.243"/><linearGradient id="b"><stop offset="0" stop-color="#4c8df1" stop-opacity="0"/><stop offset=".563" stop-color="#466cc8" stop-opacity=".563"/><stop offset="1" stop-color="#4256ac"/></linearGradient><linearGradient id="f" gradientUnits="userSpaceOnUse" x1="280.015" x2="107.196" xlink:href="#b" y1="283.255" y2="197.334"/><linearGradient id="g" gradientUnits="userSpaceOnUse" x1="420.926" x2="291.934" xlink:href="#b" y1="350.052" y2="287.844"/><linearGradient id="c"><stop offset="0" stop-color="#ffd833"/><stop offset="1" stop-color="#f2b631"/></linearGradient><linearGradient id="h" gradientUnits="userSpaceOnUse" x1="250.203" x2="332.448" xlink:href="#c" y1="401.652" y2="483.897"/><linearGradient id="i" gradientUnits="userSpaceOnUse" x1="294.777" x2="240.495" y1="431.425" y2="308.574"><stop offset="0" stop-color="#f9a126" stop-opacity="0"/><stop offset="1" stop-color="#ec4437"/></linearGradient><linearGradient id="j" gradientUnits="userSpaceOnUse" x1="204.91" x2="383.449" xlink:href="#c" y1="188.281" y2="366.819"/><linearGradient id="k" gradientUnits="userSpaceOnUse" x1="330.906" x2="128.485" xlink:href="#c" y1="283.879" y2="81.458"/><path d="M493.334 281.103v-85.537c0-12.075-9.788-21.863-21.863-21.863h-6.752c-8.909 0-16.859-5.434-20.266-13.666l-.113-.272c-3.423-8.238-1.652-17.715 4.656-24.023l4.774-4.774c8.538-8.538 8.538-22.381 0-30.919l-60.484-60.484c-8.538-8.538-22.381-8.538-30.919 0l-4.774 4.774c-6.308 6.308-15.785 8.079-24.023 4.656l-.272-.113c-8.232-3.407-13.666-11.357-13.666-20.266v-6.752C319.632 9.788 309.843 0 297.768 0h-85.537c-12.075 0-21.863 9.788-21.863 21.863v6.752c0 8.909-5.434 16.859-13.666 20.266l-.272.113c-8.238 3.423-17.715 1.652-24.023-4.656l-4.774-4.774c-8.538-8.538-22.381-8.538-30.919 0L56.23 100.048c-8.538 8.538-8.538 22.381 0 30.919l4.774 4.774c6.308 6.308 8.079 15.785 4.656 24.023l-.113.272c-3.407 8.232-11.357 13.666-20.266 13.666h-6.752c-12.075 0-21.863 9.788-21.863 21.863v85.537c0 12.075 9.788 21.863 21.863 21.863h6.752c8.909 0 16.859 5.434 20.266 13.666l.113.272c3.423 8.238 1.652 17.715-4.656 24.023L56.23 345.7c-8.538 8.538-8.538 22.381 0 30.919l60.484 60.484c8.538 8.538 22.381 8.538 30.919 0l4.774-4.774c6.308-6.308 15.785-8.079 24.023-4.656l.272.113c8.232 3.407 13.666 11.357 13.666 20.266v6.752c0 12.075 9.788 21.863 21.863 21.863h85.537c12.075 0 21.863-9.788 21.863-21.863v-6.752c0-8.909 5.434-16.859 13.666-20.266l.272-.113c8.238-3.423 17.715-1.652 24.023 4.656l4.774 4.774c8.538 8.538 22.381 8.538 30.919 0l60.484-60.484c8.538-8.538 8.538-22.381 0-30.919l-4.774-4.774c-6.308-6.308-8.079-15.785-4.656-24.023l.113-.272c3.407-8.232 11.357-13.666 20.266-13.666h6.752c12.076.001 21.864-9.788 21.864-21.862z" fill="url(#d)"/><circle cx="255" cy="238.334" fill="url(#e)" r="165.931"/><path d="M493.214 283.339c-1.119 11.026-10.43 19.624-21.744 19.624h-6.754c-8.906 0-16.854 5.433-20.263 13.669-.043.096-.075.181-.117.277-3.42 8.235-1.651 17.706 4.656 24.024l4.783 4.773c8.534 8.534 8.534 22.372 0 30.917l-60.491 60.48c-8.534 8.544-22.383 8.544-30.917 0l-4.773-4.773c-6.307-6.307-15.789-8.075-24.024-4.656-.096.043-.181.075-.277.117-8.225 3.398-13.658 11.357-13.658 20.263v6.754c0 11.357-8.661 20.689-19.741 21.755L162.026 338.631c-26.858-24.897-41.549-60.47-41.623-100.048-.085-45.97 20.391-84.536 55.122-109.391 4.304-3.079 9.769-4.027 12.72-.469.98 1.193 118.713 118.723 120.044 120.002a30.69 30.69 0 0011.346-23.811v-90.257c0-7.585 8.587-12.06 14.766-7.649a137.856 137.856 0 0121.073 18.601z" fill="url(#f)"/><path d="M453.769 345.701l-4.774-4.774c-6.308-6.308-8.079-15.785-4.656-24.023l.113-.272c3.407-8.232 11.357-13.666 20.266-13.666h6.752c11.314 0 20.621-8.595 21.748-19.612L355.474 145.609a131.294 131.294 0 00-9.183-9.034c21.637 24.184 34.784 56.112 34.784 91.109 0 52.128-29.18 97.448-72.093 120.513v125.351c6.372-3.82 10.65-10.773 10.65-18.743v-6.752c0-8.909 5.434-16.859 13.666-20.266l.272-.113c8.238-3.423 17.715-1.652 24.023 4.656l4.774 4.774c8.538 8.538 22.381 8.538 30.919 0l60.484-60.484c8.538-8.538 8.538-22.381-.001-30.919z" fill="url(#g)"/><path d="M316.68 486.109a280.36 280.36 0 004.372-49.311v-112.88H188.948v112.881a280.36 280.36 0 004.372 49.311c2.467 13.812 14.724 23.89 29.054 23.89h65.252c14.33 0 26.587-10.078 29.054-23.891z" fill="url(#h)"/><path d="M188.948 358.888l128.054 125.3a280.291 280.291 0 004.05-47.389V323.918H188.948z" fill="url(#i)"/><path d="M391.728 238.334c0 75.512-61.215 136.727-136.726 136.728-75.512.001-136.594-60.966-136.729-136.478-.082-45.972 22.523-86.672 57.254-111.52 6.207-4.44 14.839-.03 14.839 7.601v90.246a30.722 30.722 0 0015.36 26.606l33.913 19.581a30.72 30.72 0 0030.724 0l33.913-19.581a30.722 30.722 0 0015.36-26.606v-90.249c0-7.592 8.589-12.063 14.767-7.65 34.708 24.798 57.325 65.421 57.325 111.322z" fill="url(#j)"/><path d="M153.815 249.851a48.096 48.096 0 0024.046 41.651l53.09 30.653a48.096 48.096 0 0048.097 0l53.09-30.653a48.093 48.093 0 0024.046-41.651V146.393a137.387 137.387 0 00-21.783-19.38c-6.177-4.414-14.767.058-14.767 7.65v90.249a30.722 30.722 0 01-15.36 26.606l-33.913 19.581a30.72 30.72 0 01-30.724 0l-33.913-19.581a30.722 30.722 0 01-15.36-26.606v-90.246c0-7.632-8.632-12.042-14.839-7.601a137.49 137.49 0 00-21.711 19.328v103.458z" fill="url(#k)"/></svg>